<?xml version="1.0" encoding="UTF-8"?>
<svg id="Layer_2" data-name="Layer 2" xmlns="http://www.w3.org/2000/svg" viewBox="0 0 1099.64 86.21">
  <defs>
    <style>
      .cls-1 {
        fill: #333;
      }
    </style>
  </defs>
  <g id="Layer_1-2" data-name="Layer 1">
    <g>
      <g>
        <path class="cls-1" d="M0,84.87L23.68,24.58h5.68l23.68,60.3h-5.59l-7.34-19.05H12.85l-7.34,19.05H0ZM14.77,60.84h23.42l-11.71-29.97-11.71,29.97Z"/>
        <path class="cls-1" d="M721.17,84.87V24.58h18.88c11.71,0,19.31,7.69,19.31,18.96s-7.6,18.88-19.31,18.88h-13.72v22.46h-5.16ZM726.33,57.43h13.54c8.74,0,14.33-5.24,14.33-13.89s-5.59-13.98-14.33-13.98h-13.54v27.88Z"/>
        <path class="cls-1" d="M766.35,84.87V24.58h19.92c11.54,0,19.05,7.25,19.05,18.09,0,8.65-4.98,15.03-12.93,17.22l14.07,24.99h-5.86l-13.54-24.12h-15.55v24.12h-5.16ZM771.51,55.77h14.51c8.56,0,14.16-4.98,14.16-13.11s-5.59-13.11-14.16-13.11h-14.51v26.22Z"/>
        <path class="cls-1" d="M810.65,54.72c0-17.74,13.46-31.02,30.67-31.02s30.67,13.28,30.67,31.02-13.46,31.02-30.67,31.02-30.67-13.28-30.67-31.02ZM866.84,54.72c0-14.94-11.1-26.04-25.52-26.04s-25.52,11.1-25.52,26.04,11.1,26.04,25.52,26.04,25.52-11.1,25.52-26.04Z"/>
        <path class="cls-1" d="M879.69,84.87V24.58h21.32c17.22,0,30.85,12.58,30.85,30.15s-13.63,30.15-30.85,30.15h-21.32ZM884.84,79.89h16.08c14.77,0,25.69-10.57,25.69-25.17s-10.92-25.17-25.69-25.17h-16.08v50.34Z"/>
        <path class="cls-1" d="M939.29,60.05V24.58h5.16v35.3c0,13.28,7.25,20.88,18.88,20.88s18.79-7.52,18.79-20.88V24.58h5.16v35.48c0,16.25-9.35,25.69-23.94,25.69s-24.03-9.53-24.03-25.69Z"/>
        <path class="cls-1" d="M994.69,54.72c0-17.74,13.37-31.02,30.15-31.02,13.37,0,24.82,8.21,28.84,22.28h-5.33c-3.67-10.92-12.58-17.3-23.51-17.3-14.07,0-24.99,11.1-24.99,26.04s10.92,26.04,24.99,26.04c11.01,0,20.01-6.38,23.68-17.56h5.33c-3.85,13.98-15.29,22.55-29.01,22.55-16.78,0-30.15-13.28-30.15-31.02Z"/>
        <path class="cls-1" d="M1074.21,84.87V29.56h-20.36v-4.98h45.79v4.98h-20.27v55.32h-5.16Z"/>
      </g>
      <g>
        <polygon class="cls-1" points="99.49 84.35 75.04 24.71 91.14 24.71 108.05 65.75 124.82 24.71 140.92 24.71 116.47 84.35 99.49 84.35"/>
        <path class="cls-1" d="M147.29,84.35V24.71h15.16v59.64h-15.16Z"/>
        <polygon class="cls-1" points="193.28 84.35 168.82 24.71 184.92 24.71 201.83 65.75 218.61 24.71 234.71 24.71 210.25 84.35 193.28 84.35"/>
        <path class="cls-1" d="M262.99,86.21c-17.54,0-29.33-12.78-29.33-31.8,0-9.36,2.78-17.3,8.05-22.95,5.25-5.63,12.6-8.6,21.27-8.6,8.21,0,13.79,2.19,17.58,6.89l1.9,2.36v-7.4h15.16v59.64h-15.16v-7.53l-1.9,2.36c-3.8,4.72-9.55,7.01-17.58,7.01ZM265.96,36.16c-10.5,0-16.51,6.65-16.51,18.24s6.02,18.49,16.51,18.49c9.42,0,16.51-7.95,16.51-18.49s-7.1-18.24-16.51-18.24Z"/>
        <rect class="cls-1" x="334.37" width="15.16" height="84.35"/>
        <path class="cls-1" d="M388.9,86.21c-19.32,0-32.29-12.78-32.29-31.8,0-9.34,3.06-17.26,8.85-22.91,5.79-5.65,13.89-8.64,23.44-8.64,5.89,0,14.28,1.28,20.78,7.37,6.56,6.15,9.97,15.96,10.14,29.16h-47.05l.39,1.36c2.17,7.6,8.19,12.14,16.1,12.14,3.82,0,10.8-1.01,15.79-7.58l10.89,8.33c-8.35,10.9-20.47,12.56-27.06,12.56ZM387.79,36.16c-7.73,0-12.97,4.15-14.76,11.7l-.31,1.32h30.2l-.39-1.37c-2.26-7.84-7.08-11.65-14.74-11.65Z"/>
        <path class="cls-1" d="M426.91,84.35V24.71h15.16v59.64h-15.16Z"/>
        <path class="cls-1" d="M476.01,86.21c-11.47,0-20.36-4.22-26.46-12.55l10.9-8.34c4.92,6.64,10.49,7.58,15.8,7.58,6.09,0,9.72-1.92,9.72-5.15,0-3.5-4.58-4.43-11.51-5.83-.82-.17-1.68-.34-2.56-.53-13.85-2.96-20.03-9.23-20.03-20.33,0-15.84,15.2-18.21,24.26-18.21,7.98,0,16.56,1.34,25.37,10.89l-10.97,8.39c-4.77-4.34-8.72-5.97-14.28-5.97s-8.61,1.83-8.61,4.9c0,3.24,3.18,3.93,7.19,4.8.96.21,1.94.42,3.01.69,9.52,2.35,23.9,5.91,23.9,20.96,0,6.93-2.86,12.01-8.5,15.11-5.39,2.97-12.36,3.59-17.25,3.59Z"/>
        <path class="cls-1" d="M535.07,86.21c-8.55,0-15.26-2.49-19.95-7.41-4.83-5.05-7.27-12.43-7.27-21.92V24.71h15.16v31.3c0,10.73,5.7,16.89,15.65,16.89s15.65-7.65,15.65-20.47v-27.72h15.16v59.64h-15.16v-7.7l-1.91,2.42c-3.79,4.8-9.45,7.13-17.32,7.13Z"/>
        <path class="cls-1" d="M579.02,84.35V24.71h15.16v7.36l1.91-2.46c3.53-4.54,8.75-6.75,15.96-6.75,5.57,0,10.19,1.27,14.07,3.88l-8.51,11.85c-2.37-1.57-5.32-2.42-8.41-2.42-9.41,0-15.03,7.65-15.03,20.47v27.72h-15.16Z"/>
        <path class="cls-1" d="M655.42,86.21c-19.32,0-32.29-12.78-32.29-31.8,0-9.34,3.06-17.26,8.85-22.91,5.79-5.65,13.89-8.64,23.44-8.64,5.89,0,14.28,1.28,20.78,7.37,6.56,6.15,9.97,15.96,10.14,29.16h-47.05l.39,1.36c2.17,7.6,8.19,12.14,16.1,12.14,3.82,0,10.8-1.01,15.79-7.58l10.89,8.33c-8.35,10.9-20.47,12.56-27.06,12.56ZM654.31,36.16c-7.73,0-12.97,4.15-14.76,11.7l-.31,1.32h30.2l-.39-1.37c-2.26-7.84-7.08-11.65-14.74-11.65Z"/>
        <path class="cls-1" d="M153.03,3.57h9.24v11.36c0,2-1.62,3.62-3.62,3.62h-11.36v-9.24c0-3.16,2.57-5.73,5.73-5.73Z"/>
        <path class="cls-1" d="M432.7,3.57h9.24v11.36c0,2-1.62,3.62-3.62,3.62h-11.36v-9.24c0-3.16,2.57-5.73,5.73-5.73Z"/>
      </g>
    </g>
  </g>
</svg>