<svg width="48" height="48" viewBox="0 0 48 48" fill="none" xmlns="http://www.w3.org/2000/svg">
<path fill-rule="evenodd" clip-rule="evenodd" d="M12.3636 20.6666C10.4081 20.6666 10 21.0504 10 22.8888V26.2222C10 28.0608 10.4081 28.4444 12.3636 28.4444H17.0909V41.7778C17.0909 43.6162 17.499 44 19.4545 44H24.1818C26.1374 44 26.5454 43.6162 26.5454 41.7778V28.4444H31.8534C33.3366 28.4444 33.7188 28.1734 34.1262 26.8328L35.1392 23.4994C35.837 21.2028 35.407 20.6666 32.8664 20.6666H26.5454V15.1111C26.5454 13.8838 27.6036 12.8889 28.909 12.8889H35.6364C37.5918 12.8889 38 12.5052 38 10.6667V6.22222C38 4.3837 37.5918 4 35.6364 4H28.909C22.382 4 17.0909 8.97462 17.0909 15.1111V20.6666H12.3636Z" stroke="#141B34" stroke-width="3" stroke-linejoin="round"/>
</svg>
