<svg width="41" height="41" viewBox="0 0 41 41" fill="none" xmlns="http://www.w3.org/2000/svg">
<path d="M1.5 20.5C1.5 11.5433 1.5 7.06498 4.28248 4.28248C7.06498 1.5 11.5433 1.5 20.5 1.5C29.4566 1.5 33.935 1.5 36.7176 4.28248C39.5 7.06498 39.5 11.5433 39.5 20.5C39.5 29.4566 39.5 33.935 36.7176 36.7176C33.935 39.5 29.4566 39.5 20.5 39.5C11.5433 39.5 7.06498 39.5 4.28248 36.7176C1.5 33.935 1.5 29.4566 1.5 20.5Z" stroke="#141B34" stroke-width="3" stroke-linejoin="round"/>
<path d="M30.3529 12.5527H24.4631C22.3755 12.5527 20.6787 14.2369 20.6633 16.3246L20.4927 39.3536M16.6639 24.5034H26.2693" stroke="#141B34" stroke-width="3" stroke-linecap="round" stroke-linejoin="round"/>
</svg>
