<svg width="48" height="48" viewBox="0 0 48 48" fill="none" xmlns="http://www.w3.org/2000/svg">
<path d="M13.1511 14.8489C13.1511 8.85722 18.0083 4 24 4C29.9916 4 34.8488 8.85722 34.8488 14.8489C34.8488 24.3444 35.3222 29.0912 44 32.8888C39.5556 34 38.4444 35.1112 37.3334 39.5556C29.5556 39.5556 28.4444 44 24 44C19.5556 44 18.4444 39.5556 10.6667 39.5556C9.55556 35.1112 8.44444 34 4 32.8888C12.6778 29.0912 13.1511 24.3444 13.1511 14.8489Z" stroke="#141B34" stroke-width="3" stroke-linecap="round" stroke-linejoin="round"/>
<path d="M4 32C11.6471 27.8342 11.6471 23.9006 5.91178 18" stroke="#141B34" stroke-width="3" stroke-linecap="round"/>
<path d="M43.9999 32C36.3527 27.8342 36.3527 23.9006 42.0881 18" stroke="#141B34" stroke-width="3" stroke-linecap="round"/>
</svg>
