<svg width="41" height="41" viewBox="0 0 41 41" fill="none" xmlns="http://www.w3.org/2000/svg">
<path d="M1.5 20.5C1.5 11.5433 1.5 7.06498 4.28248 4.28248C7.06498 1.5 11.5433 1.5 20.5 1.5C29.4566 1.5 33.935 1.5 36.7176 4.28248C39.5 7.06498 39.5 11.5433 39.5 20.5C39.5 29.4566 39.5 33.935 36.7176 36.7176C33.935 39.5 29.4566 39.5 20.5 39.5C11.5433 39.5 7.06498 39.5 4.28248 36.7176C1.5 33.935 1.5 29.4566 1.5 20.5Z" stroke="#141B34" stroke-width="3" stroke-linejoin="round"/>
<path d="M17.5718 18.515C15.9317 18.2832 12.1933 18.6668 10.3602 22.0564C8.5271 25.4458 10.3746 28.9736 11.5275 30.3138C12.666 31.5676 16.2845 33.942 20.1228 31.6238C23.9254 29.3272 23.584 23.8717 23.5447 19.4296L23.4476 8.46289C23.1882 10.4084 25.3372 14.9715 31.456 15.5114" stroke="#141B34" stroke-width="3" stroke-linecap="round" stroke-linejoin="round"/>
</svg>
