<svg width="41" height="41" viewBox="0 0 41 41" fill="none" xmlns="http://www.w3.org/2000/svg">
<path d="M1.5 20.5C1.5 11.5433 1.5 7.06498 4.28248 4.28248C7.06498 1.5 11.5433 1.5 20.5 1.5C29.4568 1.5 33.935 1.5 36.7176 4.28248C39.5 7.06498 39.5 11.5433 39.5 20.5C39.5 29.4566 39.5 33.935 36.7176 36.7176C33.935 39.5 29.4568 39.5 20.5 39.5C11.5433 39.5 7.06498 39.5 4.28248 36.7176C1.5 33.935 1.5 29.4566 1.5 20.5Z" stroke="#141B34" stroke-width="3" stroke-linecap="round" stroke-linejoin="round"/>
<path d="M10.5 30.5L18.8872 22.113M18.8872 22.113L10.5 10.5H16.0556L22.113 18.887M18.8872 22.113L24.9444 30.5H30.5L22.113 18.887M30.5 10.5L22.113 18.887" stroke="#141B34" stroke-width="3" stroke-linecap="round" stroke-linejoin="round"/>
</svg>
