<svg width="48" height="48" viewBox="0 0 48 48" fill="none" xmlns="http://www.w3.org/2000/svg">
<path d="M24 41C27.6194 41 31.0902 40.6424 34.3068 39.9868C38.3246 39.1678 40.3336 38.7582 42.1668 36.4012C44 34.0442 44 31.3386 44 25.927V22.073C44 16.6615 44 13.9557 42.1668 11.5987C40.3336 9.24176 38.3246 8.83226 34.3068 8.01324C31.0902 7.35754 27.6194 7 24 7C20.3806 7 16.9098 7.35754 13.6931 8.01324C9.67532 8.83226 7.66642 9.24176 5.8332 11.5987C4 13.9557 4 16.6615 4 22.073V25.927C4 31.3386 4 34.0442 5.8332 36.4012C7.66642 38.7582 9.67532 39.1678 13.6931 39.9868C16.9098 40.6424 20.3806 41 24 41Z" stroke="#141B34" stroke-width="3"/>
<path d="M31.9242 24.6258C31.6274 25.8374 30.0482 26.7076 26.8898 28.4482C23.4544 30.341 21.7368 31.2876 20.3456 30.923C19.8744 30.7994 19.4404 30.5822 19.076 30.2876C18 29.4178 18 27.6118 18 24C18 20.3882 18 18.5822 19.076 17.7124C19.4404 17.4177 19.8744 17.2006 20.3456 17.0771C21.7368 16.7124 23.4544 17.6589 26.8898 19.5519C30.0482 21.2924 31.6274 22.1626 31.9242 23.3742C32.0252 23.7866 32.0252 24.2134 31.9242 24.6258Z" stroke="#141B34" stroke-width="3" stroke-linejoin="round"/>
</svg>
