<svg width="100" height="100" viewBox="0 0 100 100" fill="none" xmlns="http://www.w3.org/2000/svg">
<path d="M12 0.5H88C94.3513 0.5 99.5 5.64873 99.5 12V88C99.5 94.3513 94.3513 99.5 88 99.5H12C5.64873 99.5 0.5 94.3513 0.5 88V12C0.5 5.64873 5.64873 0.5 12 0.5Z" fill="#F7F9FF"/>
<path d="M12 0.5H88C94.3513 0.5 99.5 5.64873 99.5 12V88C99.5 94.3513 94.3513 99.5 88 99.5H12C5.64873 99.5 0.5 94.3513 0.5 88V12C0.5 5.64873 5.64873 0.5 12 0.5Z" stroke="#C1BCBC"/>
<path d="M31 50C31 41.0433 31 36.565 33.7825 33.7825C36.565 31 41.0433 31 50 31C58.9566 31 63.435 31 66.2176 33.7825C69 36.565 69 41.0433 69 50C69 58.9566 69 63.435 66.2176 66.2176C63.435 69 58.9566 69 50 69C41.0433 69 36.565 69 33.7825 66.2176C31 63.435 31 58.9566 31 50Z" stroke="#141B34" stroke-width="3" stroke-linejoin="round"/>
<path d="M59.8529 42.0527H53.9631C51.8755 42.0527 50.1787 43.7369 50.1633 45.8246L49.9927 68.8536M46.1639 54.0034H55.7693" stroke="#141B34" stroke-width="3" stroke-linecap="round" stroke-linejoin="round"/>
</svg>
