<svg width="100" height="100" viewBox="0 0 100 100" fill="none" xmlns="http://www.w3.org/2000/svg">
<path d="M12 0.5H88C94.3513 0.5 99.5 5.64873 99.5 12V88C99.5 94.3513 94.3513 99.5 88 99.5H12C5.64873 99.5 0.5 94.3513 0.5 88V12C0.5 5.64873 5.64873 0.5 12 0.5Z" fill="#F7F9FF"/>
<path d="M12 0.5H88C94.3513 0.5 99.5 5.64873 99.5 12V88C99.5 94.3513 94.3513 99.5 88 99.5H12C5.64873 99.5 0.5 94.3513 0.5 88V12C0.5 5.64873 5.64873 0.5 12 0.5Z" stroke="#C1BCBC"/>
<path fill-rule="evenodd" clip-rule="evenodd" d="M38.3636 46.6666C36.4081 46.6666 36 47.0504 36 48.8888V52.2222C36 54.0608 36.4081 54.4444 38.3636 54.4444H43.0909V67.7778C43.0909 69.6162 43.499 70 45.4545 70H50.1818C52.1374 70 52.5454 69.6162 52.5454 67.7778V54.4444H57.8534C59.3366 54.4444 59.7188 54.1734 60.1262 52.8328L61.1392 49.4994C61.837 47.2028 61.407 46.6666 58.8664 46.6666H52.5454V41.1111C52.5454 39.8838 53.6036 38.8889 54.909 38.8889H61.6364C63.5918 38.8889 64 38.5052 64 36.6667V32.2222C64 30.3837 63.5918 30 61.6364 30H54.909C48.382 30 43.0909 34.9746 43.0909 41.1111V46.6666H38.3636Z" stroke="#141B34" stroke-width="3" stroke-linejoin="round"/>
</svg>
