<svg width="100" height="100" viewBox="0 0 100 100" fill="none" xmlns="http://www.w3.org/2000/svg">
<path d="M12 0.5H88C94.3513 0.5 99.5 5.64873 99.5 12V88C99.5 94.3513 94.3513 99.5 88 99.5H12C5.64873 99.5 0.5 94.3513 0.5 88V12C0.5 5.64873 5.64873 0.5 12 0.5Z" fill="#F7F9FF"/>
<path d="M12 0.5H88C94.3513 0.5 99.5 5.64873 99.5 12V88C99.5 94.3513 94.3513 99.5 88 99.5H12C5.64873 99.5 0.5 94.3513 0.5 88V12C0.5 5.64873 5.64873 0.5 12 0.5Z" stroke="#C1BCBC"/>
<path d="M39.1511 40.8489C39.1511 34.8572 44.0083 30 50 30C55.9916 30 60.8488 34.8572 60.8488 40.8489C60.8488 50.3444 61.3222 55.0912 70 58.8888C65.5556 60 64.4444 61.1112 63.3334 65.5556C55.5556 65.5556 54.4444 70 50 70C45.5556 70 44.4444 65.5556 36.6667 65.5556C35.5556 61.1112 34.4444 60 30 58.8888C38.6778 55.0912 39.1511 50.3444 39.1511 40.8489Z" stroke="#141B34" stroke-width="3" stroke-linecap="round" stroke-linejoin="round"/>
<path d="M30 58C37.6471 53.8342 37.6471 49.9006 31.9118 44" stroke="#141B34" stroke-width="3" stroke-linecap="round"/>
<path d="M69.9999 58C62.3527 53.8342 62.3527 49.9006 68.0881 44" stroke="#141B34" stroke-width="3" stroke-linecap="round"/>
</svg>
