<svg width="100" height="100" viewBox="0 0 100 100" fill="none" xmlns="http://www.w3.org/2000/svg">
<path d="M12 0.5H88C94.3513 0.5 99.5 5.64873 99.5 12V88C99.5 94.3513 94.3513 99.5 88 99.5H12C5.64873 99.5 0.5 94.3513 0.5 88V12C0.5 5.64873 5.64873 0.5 12 0.5Z" fill="#F7F9FF"/>
<path d="M12 0.5H88C94.3513 0.5 99.5 5.64873 99.5 12V88C99.5 94.3513 94.3513 99.5 88 99.5H12C5.64873 99.5 0.5 94.3513 0.5 88V12C0.5 5.64873 5.64873 0.5 12 0.5Z" stroke="#C1BCBC"/>
<path d="M31 50C31 41.0433 31 36.565 33.7825 33.7825C36.565 31 41.0433 31 50 31C58.9566 31 63.435 31 66.2176 33.7825C69 36.565 69 41.0433 69 50C69 58.9566 69 63.435 66.2176 66.2176C63.435 69 58.9566 69 50 69C41.0433 69 36.565 69 33.7825 66.2176C31 63.435 31 58.9566 31 50Z" stroke="#141B34" stroke-width="3" stroke-linejoin="round"/>
<path d="M47.0718 48.015C45.4317 47.7832 41.6933 48.1668 39.8602 51.5564C38.0271 54.9458 39.8746 58.4736 41.0275 59.8138C42.166 61.0676 45.7845 63.442 49.6228 61.1238C53.4254 58.8272 53.084 53.3717 53.0447 48.9296L52.9476 37.9629C52.6882 39.9084 54.8372 44.4715 60.956 45.0114" stroke="#141B34" stroke-width="3" stroke-linecap="round" stroke-linejoin="round"/>
</svg>
