<svg width="100" height="100" viewBox="0 0 100 100" fill="none" xmlns="http://www.w3.org/2000/svg">
<path d="M12 0.5H88C94.3513 0.5 99.5 5.64873 99.5 12V88C99.5 94.3513 94.3513 99.5 88 99.5H12C5.64873 99.5 0.5 94.3513 0.5 88V12C0.5 5.64873 5.64873 0.5 12 0.5Z" fill="#F7F9FF"/>
<path d="M12 0.5H88C94.3513 0.5 99.5 5.64873 99.5 12V88C99.5 94.3513 94.3513 99.5 88 99.5H12C5.64873 99.5 0.5 94.3513 0.5 88V12C0.5 5.64873 5.64873 0.5 12 0.5Z" stroke="#C1BCBC"/>
<path d="M50 67C53.6194 67 57.0902 66.6424 60.3068 65.9868C64.3246 65.1678 66.3336 64.7582 68.1668 62.4012C70 60.0442 70 57.3386 70 51.927V48.073C70 42.6615 70 39.9557 68.1668 37.5987C66.3336 35.2418 64.3246 34.8323 60.3068 34.0132C57.0902 33.3575 53.6194 33 50 33C46.3806 33 42.9098 33.3575 39.6931 34.0132C35.6753 34.8323 33.6664 35.2418 31.8332 37.5987C30 39.9557 30 42.6615 30 48.073V51.927C30 57.3386 30 60.0442 31.8332 62.4012C33.6664 64.7582 35.6753 65.1678 39.6931 65.9868C42.9098 66.6424 46.3806 67 50 67Z" stroke="#141B34" stroke-width="3"/>
<path d="M57.9242 50.6258C57.6274 51.8374 56.0482 52.7076 52.8898 54.4482C49.4544 56.341 47.7368 57.2876 46.3456 56.923C45.8744 56.7994 45.4404 56.5822 45.076 56.2876C44 55.4178 44 53.6118 44 50C44 46.3882 44 44.5822 45.076 43.7124C45.4404 43.4177 45.8744 43.2006 46.3456 43.0771C47.7368 42.7124 49.4544 43.6589 52.8898 45.5519C56.0482 47.2924 57.6274 48.1626 57.9242 49.3742C58.0252 49.7866 58.0252 50.2134 57.9242 50.6258Z" stroke="#141B34" stroke-width="3" stroke-linejoin="round"/>
</svg>
